<svg xmlns="http://www.w3.org/2000/svg" xmlns:xlink="http://www.w3.org/1999/xlink" x="0px" y="0px" viewBox="0 0 209 43" xml:space="preserve">
	<style type="text/css">
		.logo_light_clr { fill: #FFFFFF; }
		.wdt-BH-light-logo-01 { fill: #C09342; }
	</style>
	<path class="logo_light_clr" d="M197,42c-1.4,0-2.7-0.2-4-0.7c-1.3-0.5-2.5-1.2-3.7-2.2l2.7-5c0,1.7,0.4,3,1.1,4c0.7,1,1.6,1.7,2.6,2.2
		c1,0.4,2,0.7,2.8,0.7c1.8,0,3.2-0.8,4.1-2.3c1-1.5,1.5-3.7,1.5-6.4c0-3.1-0.6-5.4-1.8-6.9c-1.1-1.5-2.6-2.3-4.4-2.3
		c-1.3,0-2.5,0.4-3.6,1.1c-1.1,0.7-2.1,1.5-3,2.5l-0.4-0.4c0.7-0.8,1.5-1.6,2.3-2.4c0.8-0.8,1.8-1.5,2.9-2c1.1-0.5,2.4-0.8,3.7-0.8
		c1.4,0,2.8,0.4,4,1.1c1.2,0.7,2.3,1.7,3,3.1c0.8,1.4,1.2,3.1,1.2,5.2c0,2.6-0.5,4.7-1.6,6.4c-1.1,1.7-2.5,2.9-4.1,3.8
		C200.6,41.6,198.8,42,197,42z M185.9,41.6c-0.1,0-0.2,0-0.3-0.2c-0.1-0.1,0-0.2,0.1-0.3c0.9-0.6,1.6-1.2,2.1-1.9
		c0.5-0.7,0.7-1.7,0.7-3.1V11.4c0-1.2-0.1-2.1-0.4-2.6c-0.2-0.5-0.7-0.8-1.3-0.8c-0.5,0-1.2,0.2-2.2,0.7c-0.1,0.1-0.2,0-0.3-0.2
		c-0.1-0.2-0.1-0.3,0.1-0.4l6.6-3.2c0.1,0,0.2-0.1,0.3-0.1c0.1,0,0.3,0.1,0.4,0.2c0.1,0.1,0.2,0.2,0.2,0.4v33.7L185.9,41.6z"/>
	<path class="logo_light_clr" d="M168.2,41.8c-1.7,0-3.1-0.5-4.1-1.6c-1-1.1-1.5-2.6-1.5-4.6V28c0-1.3-0.1-2.2-0.4-2.8c-0.2-0.6-0.6-0.9-1.2-0.9
		c-0.4,0-1,0.2-1.6,0.5c-0.1,0.1-0.3,0-0.4-0.2c-0.1-0.2,0-0.3,0.1-0.4l6-2.8c0.1,0,0.1-0.1,0.2-0.1c0.1,0,0.3,0.1,0.4,0.2
		c0.1,0.1,0.2,0.2,0.2,0.4v11.8c0,2,0.3,3.4,1,4.3c0.7,0.9,1.8,1.4,3.2,1.4c1.2,0,2.4-0.4,3.6-1.1c1.2-0.7,2.2-1.6,3.1-2.8l0.3,0.6
		c-1.4,1.9-2.9,3.3-4.3,4.3C171.4,41.4,169.8,41.8,168.2,41.8z M179.4,21.9v13.9c0,1.1,0.1,2,0.4,2.5c0.3,0.5,0.7,0.8,1.3,0.8
		c0.3,0,0.6-0.1,1-0.2c0.4-0.1,0.9-0.3,1.5-0.6c0.1-0.1,0.2,0,0.3,0.2c0.1,0.2,0.1,0.3,0,0.4l-6.3,3c-0.1,0-0.2,0.1-0.3,0.1
		c-0.3,0-0.6-0.4-0.9-1.1c-0.3-0.8-0.5-1.9-0.5-3.3V28c0-1.3-0.1-2.2-0.4-2.8c-0.2-0.6-0.6-0.9-1.2-0.9c-0.4,0-1,0.2-1.6,0.5
		c-0.1,0.1-0.2,0-0.3-0.2c-0.1-0.2,0-0.3,0.1-0.4l6-2.8c0.1,0,0.1-0.1,0.2-0.1c0.1,0,0.2,0.1,0.4,0.2
		C179.3,21.7,179.4,21.8,179.4,21.9z"/>
	<path class="logo_light_clr" d="M150.8,14c0-1-0.1-1.7-0.3-2.2c-0.2-0.5-0.6-0.9-1.2-1.1c-0.6-0.2-1.5-0.3-2.8-0.3c-0.1,0-0.2-0.1-0.2-0.3
		c0-0.2,0.1-0.3,0.2-0.3c0.8,0,1.7,0,2.8,0.1c1.1,0,2.3,0.1,3.6,0.1c1.1,0,2.3,0,3.3-0.1c1.1-0.1,2.1-0.1,2.9-0.1
		c0.1,0,0.2,0.1,0.2,0.3c0,0.2-0.1,0.3-0.2,0.3c-1.2,0-2.1,0.1-2.7,0.3c-0.6,0.2-1,0.5-1.2,1c-0.2,0.5-0.3,1.2-0.3,2.2v23.4
		c0,1,0.1,1.7,0.3,2.2c0.2,0.5,0.6,0.8,1.2,1c0.6,0.2,1.5,0.3,2.7,0.3c0.1,0,0.2,0.1,0.2,0.3s-0.1,0.3-0.2,0.3c-0.8,0-1.8,0-2.9-0.1
		c-1.1,0-2.2-0.1-3.3-0.1c-1.3,0-2.5,0-3.6,0.1c-1,0-2,0.1-2.8,0.1c-0.1,0-0.2-0.1-0.2-0.3s0.1-0.3,0.2-0.3c1.3,0,2.2-0.1,2.8-0.3
		c0.6-0.2,1-0.5,1.2-1c0.2-0.5,0.3-1.2,0.3-2.2V14z M130.2,25.5v-1.2h22.3v1.2H130.2z M128.4,37.3V13.9c0-1-0.1-1.7-0.3-2.2
		c-0.2-0.5-0.6-0.8-1.2-1c-0.6-0.2-1.5-0.3-2.7-0.3c-0.1,0-0.2-0.1-0.2-0.3c0-0.2,0.1-0.3,0.2-0.3c0.8,0,1.8,0,2.8,0.1
		c1,0,2.1,0.1,3.3,0.1c1.3,0,2.5,0,3.6-0.1c1.1-0.1,2-0.1,2.9-0.1c0.1,0,0.1,0.1,0.1,0.3c0,0.2,0,0.3-0.1,0.3c-1.2,0-2.2,0.1-2.8,0.3
		c-0.6,0.2-1,0.6-1.3,1.1c-0.2,0.5-0.3,1.2-0.3,2.2v23.3c0,1,0.1,1.7,0.3,2.2c0.2,0.5,0.6,0.8,1.3,1c0.6,0.2,1.6,0.3,2.8,0.3
		c0.1,0,0.1,0.1,0.1,0.3s0,0.3-0.1,0.3c-0.9,0-1.8,0-2.9-0.1c-1,0-2.2-0.1-3.6-0.1c-1.1,0-2.3,0-3.3,0.1c-1.1,0-2,0.1-2.9,0.1
		c-0.1,0-0.1-0.1-0.1-0.3s0-0.3,0.1-0.3c1.2,0,2.1-0.1,2.7-0.3c0.6-0.2,1.1-0.5,1.3-1C128.3,39,128.4,38.3,128.4,37.3z"/>
	<path class="logo_light_clr" d="M87.3,41.3L80,26.1c-0.7-1.5-1.3-2.4-1.7-2.9c-0.4-0.5-0.9-0.7-1.6-0.7c-0.1,0-0.1-0.1-0.1-0.3
		c0-0.2,0-0.3,0.1-0.3c0.5,0,1,0,1.6,0.1c0.6,0,1.3,0.1,2.1,0.1c1.1,0,2.1,0,3-0.1c0.9,0,1.7-0.1,2.3-0.1c0.1,0,0.2,0.1,0.2,0.3
		c0,0.2-0.1,0.3-0.2,0.3c-0.9,0-1.7,0.2-2.2,0.5c-0.5,0.3-0.6,0.8-0.3,1.5l6.3,13l-1.8,2.8l5.8-14c0.5-1.3,0.5-2.2-0.1-2.8
		c-0.6-0.6-1.7-1-3.3-1c-0.1,0-0.2-0.1-0.2-0.3c0-0.2,0.1-0.3,0.2-0.3c0.8,0,1.5,0,2.2,0.1c0.7,0,1.7,0.1,2.8,0.1
		c0.8,0,1.4,0,1.9-0.1c0.5,0,1-0.1,1.7-0.1c0.1,0,0.2,0.1,0.2,0.3c0,0.2-0.1,0.3-0.2,0.3c-0.8,0-1.6,0.3-2.2,0.9
		c-0.6,0.6-1.3,1.6-1.9,3l-6.3,14.9c-0.1,0.1-0.3,0.2-0.6,0.2C87.6,41.5,87.4,41.5,87.3,41.3z M75.2,41.3l-7.3-15.3
		c-0.7-1.5-1.3-2.5-1.8-2.9c-0.5-0.4-1-0.7-1.7-0.7c-0.1,0-0.2-0.1-0.2-0.3c0-0.2,0.1-0.3,0.2-0.3c0.5,0,1.1,0,1.7,0.1
		c0.6,0,1.4,0.1,2.2,0.1c1.1,0,2.1,0,3-0.1c0.8,0,1.6-0.1,2.4-0.1c0.1,0,0.2,0.1,0.2,0.3c0,0.2-0.1,0.3-0.2,0.3c-1,0-1.8,0.1-2.3,0.4
		c-0.5,0.3-0.6,0.8-0.3,1.6l6.4,13l-1.8,2.8L81.2,27l1,0.4l-5.9,13.9c0,0.1-0.2,0.2-0.6,0.2C75.5,41.5,75.3,41.5,75.2,41.3z"/>
	<path class="logo_light_clr" d="M55.3,42c-2.1,0-3.9-0.5-5.4-1.4c-1.4-0.9-2.5-2.2-3.3-3.6c-0.7-1.5-1.1-3-1.1-4.7c0-2.1,0.5-3.9,1.5-5.5
		c1-1.7,2.3-2.9,3.9-3.9c1.7-1,3.6-1.5,5.7-1.5c1.9,0,3.4,0.5,4.4,1.4c1,0.9,1.6,2.1,1.6,3.6c0,0.4,0,0.7-0.1,0.9
		c-0.1,0.2-0.2,0.4-0.5,0.4h-3.6c0.1-1.6-0.1-2.9-0.8-3.8c-0.6-0.9-1.6-1.4-2.8-1.4c-1.7,0-3,0.7-4,2.1c-0.9,1.4-1.4,3.3-1.4,5.7
		c0,1.9,0.3,3.6,0.9,5.1c0.6,1.4,1.5,2.6,2.7,3.4c1.2,0.8,2.6,1.2,4.2,1.2c0.9,0,1.8-0.1,2.7-0.4c0.9-0.3,1.8-0.7,2.5-1.2
		c0.1-0.1,0.2,0,0.3,0.2c0.1,0.1,0.2,0.3,0.1,0.4c-1.2,1.1-2.4,1.9-3.7,2.4C58,41.8,56.7,42,55.3,42z M48.3,27.8L48.3,27l11.4-0.3
		v0.9L48.3,27.8z"/>
	<path class="logo_light_clr" d="M33.3,27.7L33,27.1c1.3-1.5,2.3-2.7,3.2-3.5c0.8-0.8,1.6-1.4,2.2-1.7c0.6-0.3,1.2-0.5,1.7-0.5
		c0.7,0,1.4,0.2,2.1,0.7c0.7,0.4,1.1,1,1.1,1.7c0,0.5-0.2,0.9-0.5,1.3c-0.3,0.3-0.8,0.5-1.4,0.5c-0.5,0-1-0.2-1.3-0.5
		c-0.3-0.3-0.6-0.6-1-0.9c-0.3-0.3-0.7-0.5-1.3-0.5c-0.3,0-0.6,0.1-0.9,0.3c-0.3,0.2-0.8,0.5-1.4,1.1C35,25.7,34.3,26.5,33.3,27.7z
		 M28,41.4c-0.1,0-0.2-0.1-0.2-0.3s0.1-0.3,0.2-0.3c1.2,0,2-0.2,2.4-0.7c0.4-0.5,0.6-1.4,0.6-2.8v-9.9c0-1.1-0.1-1.9-0.4-2.4
		c-0.2-0.5-0.7-0.8-1.3-0.8c-0.3,0-0.7,0.1-1.2,0.2c-0.4,0.1-0.9,0.3-1.5,0.5c-0.1,0.1-0.2,0-0.3-0.2c-0.1-0.2-0.1-0.3,0.1-0.4l6.2-3
		c0.1,0,0.2-0.1,0.3-0.1c0.3,0,0.6,0.4,1,1.1c0.4,0.7,0.6,1.8,0.6,3.2v11.6c0,0.9,0.1,1.7,0.4,2.2c0.3,0.5,0.7,0.9,1.4,1.1
		c0.7,0.2,1.7,0.3,3,0.3c0.1,0,0.2,0.1,0.2,0.3s-0.1,0.3-0.2,0.3c-0.9,0-1.9,0-3-0.1s-2.3-0.1-3.5-0.1c-0.9,0-1.8,0-2.6,0.1
		C29.3,41.4,28.6,41.4,28,41.4z"/>
	<path class="logo_light_clr" d="M14.2,24.2l0.6-0.7c2.1,0,3.9,0.4,5.5,1.1c1.6,0.7,2.8,1.8,3.6,3c0.9,1.3,1.3,2.8,1.3,4.4
		c0,1.8-0.5,3.4-1.4,4.9c-0.9,1.4-2.2,2.5-3.8,3.4c-1.6,0.8-3.4,1.2-5.4,1.2c-1,0-2.2-0.1-3.6-0.2c-1.4-0.1-2.6-0.2-3.8-0.2
		S5,41.3,4,41.3s-2,0.1-2.8,0.1c-0.1,0-0.2-0.1-0.2-0.3s0.1-0.3,0.2-0.3c1.1,0,2-0.1,2.6-0.3c0.6-0.2,1-0.5,1.2-1
		c0.2-0.5,0.4-1.2,0.4-2.2V13.9c0-1-0.1-1.7-0.3-2.2c-0.2-0.5-0.6-0.8-1.2-1c-0.6-0.2-1.4-0.3-2.6-0.3c-0.1,0-0.1-0.1-0.1-0.3
		c0-0.2,0-0.3,0.1-0.3C2,9.8,3,9.8,4,9.9c1,0,2.1,0.1,3.3,0.1c0.9,0,1.9-0.1,3-0.2c1.1-0.1,2.1-0.2,3-0.2c2,0,3.7,0.3,5,0.9
		c1.3,0.5,2.3,1.3,2.9,2.3c0.6,1,1,2.1,1,3.4c0,1.9-0.7,3.5-2.1,5C18.6,22.6,16.7,23.6,14.2,24.2z M12.3,10.5c-0.7,0-1.3,0.1-1.8,0.3
		c-0.4,0.1-0.8,0.5-1,1C9.4,12.2,9.3,13,9.3,14v9.9l-1.7-0.4c1.1,0.1,2,0.1,2.7,0.2c0.7,0,1.1,0,1.2,0c2.4,0,4.1-0.7,5.1-2
		c1-1.3,1.6-3,1.6-5c0-1.2-0.2-2.3-0.7-3.2c-0.4-0.9-1-1.7-1.9-2.2C14.8,10.8,13.7,10.5,12.3,10.5z M13.8,40.6c2.5,0,4.2-0.6,5.4-1.9
		c1.1-1.3,1.7-3.1,1.7-5.4c0-2.5-0.7-4.5-2.1-6.1c-1.4-1.6-3.4-2.4-6.1-2.4c-0.7,0-1.4,0-2.3,0c-0.9,0-1.8,0.1-2.7,0.3l1.5-0.6v12.8
		c0,0.8,0.1,1.4,0.3,1.9c0.2,0.5,0.7,0.8,1.3,1.1C11.6,40.5,12.6,40.6,13.8,40.6z"/>
	<path class="wdt-BH-light-logo-01" d="M109.1,33.1V20.5l5.7-6.1l6.6-7.1h-7.6l-0.1,0.1l-0.9,1.1l0,0l-1.7,2c0.6,0.7,0.3,2.1-0.7,3.1
		c-0.9,0.9-1.9,1.3-2.7,1.1l-1.8,2.2l-0.6-0.5l1.8-2.2c-0.5-0.7-0.2-2,0.8-3.1c0.8-0.9,1.9-1.3,2.6-1.1l1.7-2.1l0,0l0.5-0.7H95
		l6.6,7.1l5.7,6.1v12.6c0,2.3-1.3,4.5-3.3,5.6L99.8,41h16.9l-4.2-2.3C110.4,37.6,109.1,35.4,109.1,33.1z"/>
	<polygon class="wdt-BH-light-logo-01" points="113.8,7.3 118.6,1.5 118,1 112.8,7.3 112.8,7.3 "/>
</svg>
